<?xml version="1.0" encoding="UTF-8" standalone="no"?>
<svg
   xmlns:dc="http://purl.org/dc/elements/1.1/"
   xmlns:cc="http://creativecommons.org/ns#"
   xmlns:rdf="http://www.w3.org/1999/02/22-rdf-syntax-ns#"
   xmlns:svg="http://www.w3.org/2000/svg"
   xmlns="http://www.w3.org/2000/svg"
   id="svg10"
   viewBox="0 0 100 125"
   y="0px"
   x="0px"
   version="1.1">
  <metadata
     id="metadata16">
    <rdf:RDF>
      <cc:Work
         rdf:about="">
        <dc:format>image/svg+xml</dc:format>
        <dc:type
           rdf:resource="http://purl.org/dc/dcmitype/StillImage" />
        <dc:title></dc:title>
      </cc:Work>
    </rdf:RDF>
  </metadata>
  <defs
     id="defs14" />
  <g
     id="g4"
     transform="translate(0,-952.36218)">
    <path
       id="path2"
       overflow="visible"
       display="inline"
       visibility="visible"
       marker="none"
       stroke="none"
       fill-rule="nonzero"
       fill-opacity="1"
       fill="#000000"
       style="text-indent:0;text-transform:none;direction:ltr;block-progression:tb;baseline-shift:baseline;color:#000000;enable-background:accumulate;"
       d="m 56.276923,992.49592 c -5.6063,0 -10.3414,4.01454 -11.4631,9.30108 l 1.7503,0 c 1.075,-4.39234 4.9993,-7.688 9.7128,-7.688 5.5433,0 9.9874,4.54714 9.9874,10.0904 0,5.5433 -4.4441,9.9874 -9.9874,9.9874 -4.664,0 -8.5554,-3.1478 -9.6785,-7.4477 l -1.7504,0 c 1.1741,5.1972 5.8714,9.0608 11.4289,9.0608 6.4336,0 11.6692,-5.1669 11.6692,-11.6005 0,-6.4336 -5.2356,-11.70348 -11.6692,-11.70348 z m -0.2058,4.4274 c -3.1672,0 -5.874,2.03652 -6.8643,4.87368 l 1.819,0 c 0.8868,-1.92156 2.7887,-3.26046 5.0453,-3.26046 3.1035,0 5.5942,2.52506 5.5942,5.62856 0,3.1035 -2.4907,5.5943 -5.5942,5.5943 -2.1703,0 -4.0135,-1.2264 -4.9423,-3.0203 l -1.8533,0 c 1.0481,2.7192 3.7064,4.6334 6.7956,4.6334 3.9938,0 7.276,-3.2135 7.276,-7.2074 0,-3.9939 -3.2822,-7.24178 -7.276,-7.24178 z m -14.6551,1.75042 a 0.82378612,0.82378612 0 0 0 -0.5835,0.4805 l -2.2309,4.77056 -1.7504,3.7067 -1.0982,-3.6037 a 0.82378612,0.82378612 0 0 0 -0.7894,-0.5834 l -3.5007,0 a 0.82378612,0.82378612 0 1 0 0,1.6473 l 2.8829,0 1.5788,5.0452 a 0.82378612,0.82378612 0 0 0 1.5101,0.1373 l 2.6771,-5.6629 1.4415,-3.0546 1.2012,3.0202 a 0.82378612,0.82378612 0 0 0 0.755,0.5148 l 1.0983,0 1.7161,0 2.5397,0 1.6818,0 2.9516,0 c 0.404,1.1874 1.5344,2.0593 2.8486,2.0593 1.6399,0 2.9859,-1.346 2.9859,-2.9859 0,-1.6399 -1.346,-2.9859 -2.9859,-2.9859 -1.3873,0 -2.58,0.9756 -2.9173,2.2652 l -2.8829,0 -1.7161,0 -2.5398,0 -1.6817,0 -0.5491,0 -1.7161,-4.25586 a 0.82378612,0.82378612 0 0 0 -0.858,-0.5148 0.82378612,0.82378612 0 0 0 -0.068,0 z" />
  </g>
  <text
     id="text6"
     font-family="'Helvetica Neue', Helvetica, Arial-Unicode, Arial, Sans-serif"
     font-weight="bold"
     font-size="5px"
     fill="#000000"
     y="115"
     x="0">Created by Dalpat Prajapati</text>
  <text
     id="text8"
     font-family="'Helvetica Neue', Helvetica, Arial-Unicode, Arial, Sans-serif"
     font-weight="bold"
     font-size="5px"
     fill="#000000"
     y="120"
     x="0">from the Noun Project</text>
</svg>
